<svg width="56" height="57" viewBox="0 0 56 57" fill="none" xmlns="http://www.w3.org/2000/svg">
<path d="M41.3087 15.4423H36.7421V14.3007C36.7421 13.9979 36.6218 13.7075 36.4077 13.4934C36.1936 13.2793 35.9033 13.1591 35.6005 13.1591C35.2977 13.1591 35.0073 13.2793 34.7932 13.4934C34.5791 13.7075 34.4588 13.9979 34.4588 14.3007V15.4423H23.0424V14.3007C23.0424 13.9979 22.9221 13.7075 22.708 13.4934C22.4939 13.2793 22.2035 13.1591 21.9007 13.1591C21.598 13.1591 21.3076 13.2793 21.0935 13.4934C20.8794 13.7075 20.7591 13.9979 20.7591 14.3007V15.4423H16.1925C15.2842 15.4423 14.413 15.8032 13.7707 16.4455C13.1284 17.0878 12.7676 17.9589 12.7676 18.8673V41.7002C12.7676 42.6085 13.1284 43.4797 13.7707 44.122C14.413 44.7643 15.2842 45.1251 16.1925 45.1251H41.3087C42.217 45.1251 43.0882 44.7643 43.7305 44.122C44.3728 43.4797 44.7336 42.6085 44.7336 41.7002V18.8673C44.7336 17.9589 44.3728 17.0878 43.7305 16.4455C43.0882 15.8032 42.217 15.4423 41.3087 15.4423ZM16.1925 17.7256H41.3087C41.6115 17.7256 41.9019 17.8459 42.116 18.06C42.3301 18.2741 42.4503 18.5645 42.4503 18.8673V22.2922H15.0509V18.8673C15.0509 18.5645 15.1711 18.2741 15.3852 18.06C15.5993 17.8459 15.8897 17.7256 16.1925 17.7256ZM41.3087 42.8418H16.1925C15.8897 42.8418 15.5993 42.7215 15.3852 42.5074C15.1711 42.2933 15.0509 42.003 15.0509 41.7002V24.5755H42.4503V41.7002C42.4503 42.003 42.3301 42.2933 42.116 42.5074C41.9019 42.7215 41.6115 42.8418 41.3087 42.8418Z" fill="#F8FDFF"/>
</svg>
